<svg width="45" height="37" viewBox="0 0 45 37" fill="none" xmlns="http://www.w3.org/2000/svg">
    <path d="M10.923 29.165C9.229 29.165 7.711 28.769 6.369 27.977C5.027 27.163 3.96 26.063 3.168 24.677C2.398 23.291 2.013 21.729 2.013 19.991C2.013 18.231 2.409 16.658 3.201 15.272C4.015 13.886 5.115 12.797 6.501 12.005C7.887 11.191 9.449 10.784 11.187 10.784C12.925 10.784 14.476 11.191 15.84 12.005C17.226 12.797 18.315 13.886 19.107 15.272C19.921 16.658 20.339 18.231 20.361 19.991V27.746C20.361 28.12 20.24 28.428 19.998 28.67C19.756 28.89 19.448 29 19.074 29C18.7 29 18.392 28.89 18.15 28.67C17.908 28.428 17.787 28.12 17.787 27.746V25.733C17.039 26.789 16.071 27.625 14.883 28.241C13.695 28.857 12.375 29.165 10.923 29.165ZM11.187 26.855C12.463 26.855 13.596 26.558 14.586 25.964C15.598 25.37 16.39 24.556 16.962 23.522C17.556 22.466 17.853 21.289 17.853 19.991C17.853 18.671 17.556 17.494 16.962 16.46C16.39 15.426 15.598 14.612 14.586 14.018C13.596 13.402 12.463 13.094 11.187 13.094C9.933 13.094 8.8 13.402 7.788 14.018C6.776 14.612 5.973 15.426 5.379 16.46C4.785 17.494 4.488 18.671 4.488 19.991C4.488 21.289 4.785 22.466 5.379 23.522C5.973 24.556 6.776 25.37 7.788 25.964C8.8 26.558 9.933 26.855 11.187 26.855ZM23.62 29C23.224 29 22.905 28.89 22.663 28.67C22.443 28.428 22.333 28.12 22.333 27.746V12.236C22.333 11.84 22.443 11.532 22.663 11.312C22.905 11.07 23.224 10.949 23.62 10.949C23.994 10.949 24.291 11.07 24.511 11.312C24.753 11.532 24.874 11.84 24.874 12.236V13.358C25.578 12.544 26.447 11.906 27.481 11.444C28.537 10.982 29.67 10.751 30.88 10.751C32.442 10.751 33.839 11.081 35.071 11.741C36.303 12.379 37.271 13.325 37.975 14.579C38.701 15.833 39.064 17.362 39.064 19.166V27.746C39.064 28.098 38.943 28.395 38.701 28.637C38.459 28.879 38.162 29 37.81 29C37.436 29 37.128 28.879 36.886 28.637C36.644 28.395 36.523 28.098 36.523 27.746V19.166C36.523 17.12 35.951 15.613 34.807 14.645C33.685 13.655 32.288 13.16 30.616 13.16C29.538 13.16 28.559 13.369 27.679 13.787C26.821 14.205 26.139 14.777 25.633 15.503C25.127 16.229 24.874 17.054 24.874 17.978V27.746C24.874 28.12 24.753 28.428 24.511 28.67C24.291 28.89 23.994 29 23.62 29ZM23.62 21.641C23.224 21.641 22.905 21.52 22.663 21.278C22.443 21.036 22.333 20.728 22.333 20.354V4.514C22.333 4.118 22.443 3.81 22.663 3.59C22.905 3.348 23.224 3.227 23.62 3.227C23.994 3.227 24.291 3.348 24.511 3.59C24.753 3.81 24.874 4.118 24.874 4.514V20.354C24.874 20.728 24.753 21.036 24.511 21.278C24.291 21.52 23.994 21.641 23.62 21.641Z" fill="black" />
    <rect x="40" y="24" width="5" height="5" rx="2.5" fill="#0268D3" />
</svg>